<?xml version="1.0" encoding="UTF-8"?>
<svg width="44px" height="45px" viewBox="0 0 44 45" version="1.1" xmlns="http://www.w3.org/2000/svg" xmlns:xlink="http://www.w3.org/1999/xlink">
    <!-- Generator: Sketch 51.1 (57501) - http://www.bohemiancoding.com/sketch -->
    <title>Group</title>
    <desc>Created with Sketch.</desc>
    <defs>
        <path d="M13.76,0.053344308 C19.5491837,0.053344308 24.6202531,2.93618502 27.4293709,7.57565986 C24.6202516,12.2151316 19.5491829,15.3125 13.76,15.3125 C7.9708171,15.3125 2.89974835,12.2151316 0.0906303069,7.57565789 C2.89974692,2.93618502 7.97081628,0.053344308 13.76,0.053344308 Z" id="path-1"></path>
    </defs>
    <g id="✏️" stroke="none" stroke-width="1" fill="none" fill-rule="evenodd">
        <g id="Home-Copy-2" transform="translate(-130.000000, -67.000000)">
            <g id="Group" transform="translate(152.000000, 89.500000) rotate(225.000000) translate(-152.000000, -89.500000) translate(136.000000, 65.000000)">
                <ellipse id="Oval-Copy-2" fill="#000000" cx="16" cy="16.1184211" rx="16" ry="16.1184211"></ellipse>
                <g id="Group-3-Copy"></g>
                <g id="Group-2-Copy" transform="translate(2.240000, 16.924342)">
                    <mask id="mask-2" fill="white">
                        <use xlink:href="#path-1"></use>
                    </mask>
                    <use id="Combined-Shape" fill="#000000" xlink:href="#path-1"></use>
                    <path d="M26.72,-0.161184211 L28.16,-0.161184211 L28.16,15.3125 L26.72,15.3125 L26.72,-0.161184211 Z M23.84,-0.161184211 L25.28,-0.161184211 L25.28,15.3125 L23.84,15.3125 L23.84,-0.161184211 Z M20.96,-0.161184211 L22.4,-0.161184211 L22.4,15.3125 L20.96,15.3125 L20.96,-0.161184211 Z M18.08,-0.161184211 L19.52,-0.161184211 L19.52,15.3125 L18.08,15.3125 L18.08,-0.161184211 Z M15.2,-0.161184211 L16.64,-0.161184211 L16.64,15.3125 L15.2,15.3125 L15.2,-0.161184211 Z M12.32,-0.161184211 L13.76,-0.161184211 L13.76,15.3125 L12.32,15.3125 L12.32,-0.161184211 Z M9.44,-0.161184211 L10.88,-0.161184211 L10.88,15.3125 L9.44,15.3125 L9.44,-0.161184211 Z M6.56,-0.161184211 L8,-0.161184211 L8,15.3125 L6.56,15.3125 L6.56,-0.161184211 Z M3.68,-0.161184211 L5.12,-0.161184211 L5.12,15.3125 L3.68,15.3125 L3.68,-0.161184211 Z M0.8,-0.161184211 L2.24,-0.161184211 L2.24,15.3125 L0.8,15.3125 L0.8,-0.161184211 Z" id="Combined-Shape" fill="#FFFFFF" mask="url(#mask-2)"></path>
                </g>
                <ellipse id="Oval-Copy-3" stroke="#000000" stroke-width="1.44000004" cx="16" cy="32.8815789" rx="15.28" ry="15.398421"></ellipse>
            </g>
        </g>
    </g>
</svg>