<?xml version="1.0" encoding="UTF-8"?>
<svg width="24px" height="24px" viewBox="0 0 24 24" version="1.1" xmlns="http://www.w3.org/2000/svg" xmlns:xlink="http://www.w3.org/1999/xlink">
    <!-- Generator: Sketch 51.1 (57501) - http://www.bohemiancoding.com/sketch -->
    <title>Group 22 Copy</title>
    <desc>Created with Sketch.</desc>
    <defs></defs>
    <g id="✏️" stroke="none" stroke-width="1" fill="none" fill-rule="evenodd">
        <g id="Home-Copy-2" transform="translate(-267.000000, -1165.000000)">
            <g id="Group-22-Copy" transform="translate(267.000000, 1165.000000)">
                <rect id="Rectangle-17" fill="#FFFFFF" opacity="0.01" x="0" y="0" width="24" height="24"></rect>
                <g id="Group-20" transform="translate(12.545942, 12.545942) rotate(-45.000000) translate(-12.545942, -12.545942) translate(7.545942, 4.045942)" fill="#FF3E00">
                    <path d="M5.3039437,0.874471645 C5.12457898,0.737153806 4.87542102,0.737153806 4.6960563,0.874471645 L1.0881689,3.63659393 C0.717427396,3.92042579 0.5,4.36071362 0.5,4.82762879 L0.5,14.2806248 C0.5,15.109052 1.17157288,15.7806248 2,15.7806248 L8,15.7806248 C8.82842712,15.7806248 9.5,15.109052 9.5,14.2806248 L9.5,4.82762879 C9.5,4.36071362 9.2825726,3.92042579 8.9118311,3.63659393 L5.3039437,0.874471645 Z" id="Rectangle-3" stroke="#FF3E00" fill-opacity="0.1"></path>
                    <circle id="Oval-3" cx="5" cy="5" r="1"></circle>
                </g>
                <path d="M7,8 C5,6 4.33333333,4.66666667 5,4 C6,3 10,7 10,10" id="Path-10" stroke="#FF3E00" stroke-linejoin="round"></path>
            </g>
        </g>
    </g>
</svg>